# MagicaVoxel @ Ephtracy

# group
o 

# material
mtllib bok.mtl
usemtl palette

# normals
vn -1 0 0
vn 1 0 0
vn 0 0 1
vn 0 0 -1
vn 0 -1 0
vn 0 1 0

# texcoords
vt 0.306641 0.5
vt 0.958984 0.5
vt 0.994141 0.5

# verts
v -0.5 0 0.2
v -0.5 0 -0.2
v -0.5 0.1 0.1
v -0.5 0.1 -0.1
v -0.5 0.9 0.1
v -0.5 0.9 -0.1
v -0.5 1 0.2
v -0.5 1 0.1
v -0.5 1 -0.1
v -0.5 1 -0.2
v 0.5 0 0.2
v 0.5 0 -0.2
v 0.5 0.1 0.1
v 0.5 0.1 -0.1
v 0.5 0.4 0.2
v 0.5 0.4 0.1
v 0.5 0.5 0.2
v 0.5 0.5 0.1
v 0.5 0.6 0.2
v 0.5 0.6 0.1
v 0.5 0.7 0.2
v 0.5 0.7 0.1
v 0.5 0.9 0.1
v 0.5 0.9 -0.1
v 0.5 1 0.2
v 0.5 1 0.1
v 0.5 1 -0.1
v 0.5 1 -0.2
v -0.5 0 0.2
v -0.5 1 0.2
v -0.4 0.1 0.2
v -0.4 0.4 0.2
v -0.4 0.5 0.2
v -0.4 0.8 0.2
v -0.3 0.2 0.2
v -0.3 0.3 0.2
v -0.3 0.6 0.2
v -0.3 0.7 0.2
v -0.2 0.2 0.2
v -0.2 0.3 0.2
v -0.1 0.2 0.2
v -0.1 0.3 0.2
v 0 0.2 0.2
v 0 0.3 0.2
v 0 0.6 0.2
v 0 0.7 0.2
v 0.1 0.1 0.2
v 0.1 0.4 0.2
v 0.1 0.5 0.2
v 0.1 0.8 0.2
v 0.2 0.6 0.2
v 0.2 0.7 0.2
v 0.3 0.5 0.2
v 0.3 0.6 0.2
v 0.3 0.7 0.2
v 0.4 0.5 0.2
v 0.4 0.6 0.2
v 0.4 0.7 0.2
v 0.5 0 0.2
v 0.5 0.4 0.2
v 0.5 0.5 0.2
v 0.5 0.6 0.2
v 0.5 0.7 0.2
v 0.5 1 0.2
v -0.5 0.9 -0.1
v -0.5 1 -0.1
v 0.5 0.9 -0.1
v 0.5 1 -0.1
v -0.5 0.9 0.1
v -0.5 1 0.1
v 0.5 0.9 0.1
v 0.5 1 0.1
v -0.5 0 -0.2
v -0.5 1 -0.2
v 0.5 0 -0.2
v 0.5 1 -0.2
v -0.5 0 0.2
v 0.5 0 0.2
v -0.5 0 -0.2
v 0.5 0 -0.2
v -0.5 0.9 0.1
v 0.5 0.9 0.1
v -0.5 0.9 -0.1
v 0.5 0.9 -0.1
v -0.5 1 0.2
v 0.5 1 0.2
v -0.5 1 0.1
v 0.5 1 0.1
v -0.5 1 -0.1
v 0.5 1 -0.1
v -0.5 1 -0.2
v 0.5 1 -0.2

# faces
f 3/1/1 2/1/1 1/1/1
f 4/1/1 2/1/1 3/1/1
f 5/1/1 3/1/1 1/1/1
f 5/2/1 4/2/1 3/2/1
f 6/1/1 2/1/1 4/1/1
f 6/2/1 4/2/1 5/2/1
f 7/1/1 5/1/1 1/1/1
f 8/1/1 5/1/1 7/1/1
f 9/1/1 2/1/1 6/1/1
f 10/1/1 2/1/1 9/1/1
f 11/1/2 12/1/2 13/1/2
f 13/1/2 12/1/2 14/1/2
f 11/1/2 13/1/2 15/1/2
f 13/2/2 14/2/2 16/2/2
f 15/1/2 13/1/2 16/1/2
f 15/3/2 16/3/2 17/3/2
f 16/2/2 14/2/2 18/2/2
f 17/3/2 16/3/2 18/3/2
f 17/1/2 18/1/2 19/1/2
f 18/2/2 14/2/2 20/2/2
f 19/1/2 18/1/2 20/1/2
f 19/3/2 20/3/2 21/3/2
f 20/2/2 14/2/2 22/2/2
f 21/3/2 20/3/2 22/3/2
f 21/1/2 22/1/2 23/1/2
f 22/2/2 14/2/2 23/2/2
f 14/1/2 12/1/2 24/1/2
f 23/2/2 14/2/2 24/2/2
f 21/1/2 23/1/2 25/1/2
f 25/1/2 23/1/2 26/1/2
f 24/1/2 12/1/2 27/1/2
f 27/1/2 12/1/2 28/1/2
f 31/1/3 30/1/3 29/1/3
f 32/1/3 30/1/3 31/1/3
f 33/1/3 30/1/3 32/1/3
f 34/1/3 30/1/3 33/1/3
f 35/3/3 32/3/3 31/3/3
f 36/3/3 32/3/3 35/3/3
f 37/3/3 34/3/3 33/3/3
f 38/3/3 34/3/3 37/3/3
f 39/3/3 35/3/3 31/3/3
f 39/1/3 36/1/3 35/1/3
f 40/3/3 32/3/3 36/3/3
f 40/1/3 36/1/3 39/1/3
f 41/3/3 39/3/3 31/3/3
f 41/3/3 40/3/3 39/3/3
f 42/3/3 32/3/3 40/3/3
f 42/3/3 40/3/3 41/3/3
f 43/3/3 41/3/3 31/3/3
f 43/1/3 42/1/3 41/1/3
f 44/3/3 32/3/3 42/3/3
f 44/1/3 42/1/3 43/1/3
f 45/1/3 38/1/3 37/1/3
f 45/3/3 37/3/3 33/3/3
f 46/3/3 34/3/3 38/3/3
f 46/1/3 38/1/3 45/1/3
f 47/1/3 31/1/3 29/1/3
f 47/3/3 43/3/3 31/3/3
f 47/3/3 44/3/3 43/3/3
f 48/1/3 33/1/3 32/1/3
f 48/3/3 44/3/3 47/3/3
f 48/3/3 32/3/3 44/3/3
f 49/3/3 46/3/3 45/3/3
f 49/1/3 33/1/3 48/1/3
f 49/3/3 45/3/3 33/3/3
f 50/3/3 34/3/3 46/3/3
f 50/3/3 46/3/3 49/3/3
f 50/1/3 30/1/3 34/1/3
f 51/1/3 50/1/3 49/1/3
f 52/1/3 50/1/3 51/1/3
f 53/3/3 49/3/3 48/3/3
f 53/1/3 51/1/3 49/1/3
f 54/3/3 52/3/3 51/3/3
f 54/1/3 51/1/3 53/1/3
f 55/1/3 50/1/3 52/1/3
f 55/3/3 52/3/3 54/3/3
f 56/3/3 54/3/3 53/3/3
f 56/3/3 53/3/3 48/3/3
f 57/1/3 55/1/3 54/1/3
f 57/3/3 54/3/3 56/3/3
f 58/1/3 50/1/3 55/1/3
f 58/1/3 55/1/3 57/1/3
f 59/1/3 48/1/3 47/1/3
f 59/1/3 47/1/3 29/1/3
f 60/3/3 56/3/3 48/3/3
f 60/1/3 48/1/3 59/1/3
f 61/1/3 57/1/3 56/1/3
f 61/3/3 56/3/3 60/3/3
f 62/3/3 58/3/3 57/3/3
f 62/1/3 57/1/3 61/1/3
f 63/1/3 50/1/3 58/1/3
f 63/3/3 58/3/3 62/3/3
f 64/1/3 30/1/3 50/1/3
f 64/1/3 50/1/3 63/1/3
f 67/1/3 66/1/3 65/1/3
f 68/1/3 66/1/3 67/1/3
f 69/1/4 70/1/4 71/1/4
f 71/1/4 70/1/4 72/1/4
f 73/1/4 74/1/4 75/1/4
f 75/1/4 74/1/4 76/1/4
f 79/1/5 78/1/5 77/1/5
f 80/1/5 78/1/5 79/1/5
f 81/2/6 82/2/6 83/2/6
f 83/2/6 82/2/6 84/2/6
f 85/1/6 86/1/6 87/1/6
f 87/1/6 86/1/6 88/1/6
f 89/1/6 90/1/6 91/1/6
f 91/1/6 90/1/6 92/1/6
